Coordinates
version=1
nRows=4
nColumns=63
inDegrees=yes

Units are S.I. units (second, meters, Newtons, ...)
If the header above contains a line with 'inDegrees', this indicates whether rotational values are in degrees (yes) or radians (no).

endheader
time	pelvis_tilt	pelvis_list	pelvis_rotation	pelvis_tx	pelvis_ty	pelvis_tz	hip_flexion_r	hip_adduction_r	hip_rotation_r	knee_angle_r	knee_angle_r_beta	ankle_angle_r	subtalar_angle_r	mtp_angle_r	hip_flexion_l	hip_adduction_l	hip_rotation_l	knee_angle_l	knee_angle_l_beta	ankle_angle_l	subtalar_angle_l	mtp_angle_l	L5_S1_Flex_Ext	L5_S1_Lat_Bending	L5_S1_axial_rotation	L4_L5_Flex_Ext	L4_L5_Lat_Bending	L4_L5_axial_rotation	L3_L4_Flex_Ext	L3_L4_Lat_Bending	L3_L4_axial_rotation	L2_L3_Flex_Ext	L2_L3_Lat_Bending	L2_L3_axial_rotation	L1_L2_Flex_Ext	L1_L2_Lat_Bending	L1_L2_axial_rotation	L1_T12_Flex_Ext	L1_T12_Lat_Bending	L1_T12_axial_rotation	Abs_r3	Abs_r2	Abs_r1	Abs_t1	Abs_t2	neck_flexion	neck_bending	neck_rotation	arm_flex_r	arm_add_r	arm_rot_r	elbow_flex_r	pro_sup_r	wrist_flex_r	wrist_dev_r	arm_flex_l	arm_add_l	arm_rot_l	elbow_flex_l	pro_sup_l	wrist_flex_l	wrist_dev_l
      0.00000000	     -2.74452287	    -10.23661435	     88.97544269	      0.26697886	      0.38557412	      0.92944469	     14.55940905	     -2.79256745	    -13.33794698	      8.67239924	      0.15136192	     24.95600072	     12.00928058	      0.00000000	     12.67877829	      3.42397786	    -10.36814049	      3.80896987	      0.06647907	     22.12542826	     12.17839698	      0.00000000	      0.05564295	     -0.10241310	      0.01377394	      0.10333451	     -0.13620942	      0.01463481	      0.09141579	     -0.24900720	      0.01463481	      0.06359432	     -0.24900720	      0.01205219	      0.05167004	     -0.20884079	      0.01119132	      0.03179438	     -0.15863789	      0.01033045	      0.39745199	     -1.15851743	      0.07660651	      0.00000000	      0.00000000	     17.43260779	     -3.59939215	     18.84444971	     21.25186411	     -3.79912751	     93.25305070	     34.85221204	     89.18473525	    -24.59649237	     -5.08338224	     15.29376537	     -9.32677095	     66.72544461	     41.46291007	     58.61510630	     -3.17307027	     -5.24688994
      0.02380952	     -2.31949900	    -10.07382397	     89.12016772	      0.26609390	      0.38567732	      0.92664998	     14.30904471	     -2.31159085	    -12.10446275	      8.40293964	      0.14665896	     25.19805858	     11.45528704	      0.00000000	     11.84743463	      3.09978170	     -9.37519203	      3.14481396	      0.05488736	     22.69843332	     12.18649003	      0.00000000	      0.06507931	     -0.05699558	      0.09608913	      0.12085878	     -0.07580412	      0.10209470	      0.10691879	     -0.13857905	      0.10209470	      0.07437914	     -0.13857905	      0.08407799	      0.06043264	     -0.11622538	      0.07807242	      0.03718632	     -0.08828615	      0.07206685	      0.46485498	     -0.64474536	      0.53441893	      0.00000000	      0.00000000	     17.00078582	     -2.98081041	     18.85315821	     19.99411275	     -5.14663894	     84.51620047	     36.94156346	     88.95700315	    -20.77767733	     -5.60508630	     15.46715775	     -8.88841862	     65.59209297	     41.03842441	     60.17092561	     -1.03909788	     -3.75141859
      0.04761905	     -1.99413837	     -9.87524784	     89.31911856	      0.26544467	      0.38580158	      0.92416171	     13.95050368	     -1.91722173	    -10.75013157	      8.13411569	      0.14196710	     25.18356536	     10.25990255	      0.00000000	     11.17139130	      2.84575932	     -8.30888942	      2.74233593	      0.04786279	     23.06075278	     11.85022366	      0.00000000	      0.07311971	     -0.01937057	      0.13763859	      0.13579061	     -0.02576285	      0.14624100	      0.12012837	     -0.04709759	      0.14624100	      0.08356851	     -0.04709759	      0.12043377	      0.06789896	     -0.03950046	      0.11183135	      0.04178060	     -0.03000501	      0.10322894	      0.52228676	     -0.21912371	      0.76550454	      0.00000000	      0.00000000	     16.58587668	     -2.49731340	     19.36700802	     18.69659501	     -5.85167441	     77.51383663	     38.36169465	     88.69527945	    -16.79382142	     -5.20197859	     15.40147325	     -8.53484622	     64.12775976	     40.85081987	     62.26229405	      0.69466945	     -1.81446390
      0.07142857	     -1.73654675	     -9.67373785	     89.62315393	      0.26481554	      0.38589092	      0.92183547	     13.48362051	     -1.63899743	     -9.93432173	      7.83465313	      0.13674049	     25.12591291	      9.37993310	      0.00000000	     10.57818784	      2.65334958	     -7.55471305	      2.40092202	      0.04190399	     23.21217006	     11.84021326	      0.00000000	      0.08460008	      0.01489774	      0.13134824	      0.15711081	      0.01981399	      0.13955751	      0.13898947	      0.03622236	      0.13955751	      0.09668943	      0.03622236	      0.11492971	      0.07855963	      0.03037947	      0.10672045	      0.04834049	      0.02307659	      0.09851118	      0.60428991	      0.16852618	      0.73051952	      0.00000000	      0.00000000	     16.06908128	     -1.91530308	     20.55222653	     17.68331608	     -6.18160415	     73.04962375	     39.20218885	     88.30869924	    -14.76205203	     -4.99124314	     15.32228370	     -8.31047837	     63.34774584	     40.77501691	     63.97175510	      1.60771272	     -0.57572184
